<svg width="20" height="21" viewBox="0 0 20 21" fill="none" xmlns="http://www.w3.org/2000/svg">
<path d="M6.66754 10.588C6.66754 8.67943 8.15946 7.13185 10.0003 7.13185C11.8412 7.13185 13.3339 8.67943 13.3339 10.588C13.3339 12.4965 11.8412 14.0441 10.0003 14.0441C8.15946 14.0441 6.66754 12.4965 6.66754 10.588ZM4.86546 10.588C4.86546 13.5282 7.16434 15.9116 10.0003 15.9116C12.8363 15.9116 15.1352 13.5282 15.1352 10.588C15.1352 7.64774 12.8363 5.26438 10.0003 5.26438C7.16434 5.26438 4.86546 7.64774 4.86546 10.588ZM14.1385 5.05329C14.1384 5.29935 14.2087 5.53992 14.3405 5.74456C14.4722 5.94921 14.6596 6.10875 14.8788 6.203C15.0981 6.29725 15.3393 6.32199 15.5721 6.27408C15.8049 6.22618 16.0188 6.10778 16.1867 5.93386C16.3546 5.75993 16.4689 5.5383 16.5153 5.29699C16.5617 5.05568 16.5381 4.80552 16.4473 4.57815C16.3566 4.35079 16.2029 4.15642 16.0056 4.01964C15.8083 3.88285 15.5763 3.80979 15.339 3.80969H15.3385C15.0204 3.80984 14.7153 3.9409 14.4903 4.17407C14.2653 4.40725 14.1388 4.72347 14.1385 5.05329V5.05329ZM5.96034 19.0269C4.98538 18.9808 4.45546 18.8125 4.1033 18.6702C3.63642 18.4818 3.3033 18.2574 2.95306 17.8947C2.60282 17.5321 2.38602 17.1871 2.20506 16.7031C2.06778 16.3381 1.90538 15.7886 1.86106 14.7778C1.81258 13.6849 1.8029 13.3567 1.8029 10.5881C1.8029 7.81943 1.81338 7.49206 1.86106 6.39833C1.90546 5.38754 2.06906 4.83906 2.20506 4.47304C2.38682 3.98901 2.6033 3.64364 2.95306 3.28053C3.30282 2.91742 3.63562 2.69265 4.1033 2.50504C4.4553 2.36272 4.98538 2.19435 5.96034 2.1484C7.01442 2.09814 7.33106 2.0881 10.0003 2.0881C12.6696 2.0881 12.9866 2.09897 14.0415 2.1484C15.0165 2.19443 15.5455 2.36405 15.8986 2.50504C16.3655 2.69265 16.6986 2.91792 17.0488 3.28053C17.3991 3.64315 17.6151 3.98901 17.7968 4.47304C17.9341 4.83798 18.0965 5.38754 18.1408 6.39833C18.1893 7.49206 18.199 7.81943 18.199 10.5881C18.199 13.3567 18.1893 13.684 18.1408 14.7778C18.0964 15.7886 17.9332 16.338 17.7968 16.7031C17.6151 17.1871 17.3986 17.5325 17.0488 17.8947C16.6991 18.257 16.3655 18.4818 15.8986 18.6702C15.5466 18.8126 15.0165 18.9809 14.0415 19.0269C12.9875 19.0771 12.6708 19.0872 10.0003 19.0872C7.32986 19.0872 7.0141 19.0771 5.96034 19.0269V19.0269ZM5.87754 0.283245C4.81298 0.333506 4.08554 0.50851 3.45026 0.764795C2.79234 1.02946 2.23538 1.38452 1.67882 1.96062C1.12226 2.53673 0.780656 3.11507 0.525376 3.79717C0.278176 4.45621 0.109376 5.20997 0.0608957 6.31365C0.0116157 7.41908 0.000335693 7.77248 0.000335693 10.588C0.000335693 13.4035 0.0116157 13.7569 0.0608957 14.8623C0.109376 15.9661 0.278176 16.7197 0.525376 17.3788C0.780656 18.0605 1.12234 18.6395 1.67882 19.2153C2.2353 19.7912 2.79234 20.1457 3.45026 20.4111C4.08674 20.6674 4.81298 20.8424 5.87754 20.8927C6.94434 20.943 7.28466 20.9555 10.0003 20.9555C12.716 20.9555 13.0569 20.9438 14.1231 20.8927C15.1878 20.8424 15.9147 20.6674 16.5504 20.4111C17.2079 20.1457 17.7653 19.7914 18.3219 19.2153C18.8784 18.6392 19.2193 18.0605 19.4753 17.3788C19.7225 16.7197 19.8921 15.966 19.9398 14.8623C19.9883 13.756 19.9995 13.4035 19.9995 10.588C19.9995 7.77248 19.9883 7.41908 19.9398 6.31365C19.8913 5.20988 19.7225 4.45579 19.4753 3.79717C19.2193 3.11548 18.8775 2.53764 18.3219 1.96062C17.7662 1.38361 17.2079 1.02946 16.5512 0.764795C15.9147 0.50851 15.1877 0.332677 14.1239 0.283245C13.0577 0.232983 12.7168 0.220459 10.0011 0.220459C7.28546 0.220459 6.94434 0.232154 5.87754 0.283245Z" fill="#121212" fill-opacity="0.6"/>
</svg>
